<?xml version="1.0" standalone="no"?>
<!DOCTYPE svg PUBLIC "-//W3C//DTD SVG 20010904//EN"
 "http://www.w3.org/TR/2001/REC-SVG-20010904/DTD/svg10.dtd">
<svg version="1.0" xmlns="http://www.w3.org/2000/svg"
 width="211.000000pt" height="50.000000pt" viewBox="0 0 211.000000 50.000000"
 preserveAspectRatio="xMidYMid meet">

<g transform="translate(0.000000,50.000000) scale(0.100000,-0.100000)"
fill="#000000" stroke="none">
<path d="M177 472 c-26 -28 -168 -401 -165 -431 3 -23 8 -26 38 -26 33 0 36 3
57 55 l22 55 96 0 96 0 22 -55 c20 -49 26 -55 54 -58 24 -2 34 2 43 18 9 17
-2 53 -70 223 -45 111 -89 210 -97 220 -21 22 -75 22 -96 -1z m82 -178 c17
-47 31 -87 31 -90 0 -2 -29 -4 -65 -4 -36 0 -65 4 -65 9 0 5 11 40 25 77 14
38 28 75 30 82 2 6 6 12 9 12 2 0 18 -38 35 -86z"/>
<path d="M532 478 c-17 -17 -17 -439 0 -456 15 -15 51 -15 66 0 7 7 12 39 12
73 0 58 2 63 41 100 33 33 42 37 49 25 5 -8 38 -58 72 -110 52 -78 68 -96 91
-98 32 -4 57 13 57 38 0 10 -34 66 -76 126 -42 60 -78 114 -80 119 -3 6 21 32
51 59 73 63 90 88 75 115 -7 14 -21 21 -39 21 -23 0 -48 -20 -130 -105 -55
-58 -103 -105 -106 -105 -3 0 -5 42 -5 93 0 98 -7 117 -45 117 -12 0 -26 -5
-33 -12z"/>
<path d="M1002 470 c-49 -46 -39 -113 21 -145 l37 -20 37 20 c60 32 70 99 21
145 -29 27 -87 27 -116 0z"/>
<path d="M1220 471 c-6 -12 -10 -101 -10 -221 0 -120 4 -209 10 -221 14 -26
66 -26 80 0 5 11 10 46 10 79 0 48 4 62 23 78 57 51 50 55 127 -65 68 -105 74
-111 106 -111 39 0 56 23 43 58 -5 13 -40 68 -79 122 -38 54 -70 103 -70 107
0 5 29 38 65 73 65 65 75 86 53 108 -28 28 -56 12 -162 -95 l-106 -108 0 88
c0 104 -9 127 -50 127 -19 0 -33 -7 -40 -19z"/>
<path d="M1775 480 c-42 -13 -112 -75 -134 -119 -49 -95 -32 -211 43 -285 104
-104 263 -97 360 15 46 54 59 96 54 174 -8 128 -100 217 -227 222 -36 1 -80
-2 -96 -7z m163 -74 c131 -69 132 -250 1 -316 -48 -25 -59 -25 -59 0 0 24 29
38 40 20 12 -19 38 -5 42 22 2 15 10 23 23 23 13 0 20 7 20 20 0 12 -6 19 -15
17 -8 -2 -20 4 -27 14 -14 19 -43 12 -43 -11 0 -8 -9 -15 -20 -15 -22 0 -27
22 -7 38 27 21 58 24 78 6 11 -10 19 -12 19 -6 0 22 20 12 21 -10 0 -22 1 -22
9 -3 13 31 12 45 -5 39 -8 -4 -21 -1 -29 5 -7 6 -16 7 -21 3 -4 -4 -2 4 5 16
8 16 18 22 31 19 10 -3 19 -1 19 4 0 5 -8 9 -17 9 -13 0 -14 3 -6 11 13 13 6
39 -9 39 -6 0 -7 -7 -4 -15 3 -9 -1 -18 -9 -21 -8 -4 -15 -16 -15 -28 -1 -19
-1 -20 -11 -3 -8 14 -7 23 6 37 15 17 15 19 -3 31 -10 8 -22 24 -26 37 -4 12
-14 22 -23 22 -9 0 -13 -6 -9 -15 3 -8 1 -15 -5 -15 -7 0 -9 -10 -5 -25 4 -14
2 -25 -3 -25 -6 0 -8 -9 -6 -19 3 -14 -1 -18 -11 -14 -8 3 -14 0 -14 -7 0 -6
-4 -8 -10 -5 -5 3 -10 1 -10 -6 0 -7 -3 -9 -7 -5 -5 4 -1 13 7 19 20 16 23 37
6 37 -11 0 -12 5 -3 25 7 14 20 25 30 25 9 0 17 7 17 15 0 24 -37 18 -45 -7
l-8 -23 -4 23 c-6 30 -21 28 -34 -5 -5 -14 -17 -32 -26 -38 -11 -8 -13 -14 -5
-19 15 -9 16 -46 2 -46 -5 0 -9 6 -7 13 3 15 -43 12 -58 -4 -7 -8 -4 -9 11 -5
14 4 27 -1 40 -16 10 -12 13 -18 6 -14 -7 4 -19 2 -27 -4 -8 -6 -19 -9 -25 -5
-6 3 -10 -3 -10 -16 0 -18 2 -19 15 -9 9 7 18 11 20 8 9 -8 -6 -38 -16 -32
-14 8 -11 -10 5 -32 14 -18 15 -18 21 -2 9 23 61 24 69 2 8 -22 -1 -31 -16
-16 -7 7 -18 12 -26 12 -16 0 -7 -37 14 -60 12 -12 14 -12 14 3 0 18 8 21 34
11 18 -7 22 -44 6 -44 -24 0 -77 29 -102 56 -84 90 -53 234 62 286 27 12 120
8 148 -6z m-131 -76 c1 -46 0 -48 -15 -33 -12 11 -13 18 -5 20 7 3 9 11 6 19
-5 13 2 44 10 44 2 0 4 -22 4 -50z m108 1 c-17 -15 -17 -15 -11 2 3 10 6 26 6
35 1 15 2 15 11 -2 9 -14 7 -22 -6 -35z m5 -36 c-7 -9 -15 -13 -18 -10 -3 2 1
11 8 20 7 9 15 13 18 10 3 -2 -1 -11 -8 -20z m11 -43 c-7 -2 -18 1 -23 6 -8 8
-4 9 13 5 13 -4 18 -8 10 -11z m-61 -12 c0 -11 -4 -20 -10 -20 -5 0 -10 9 -10
20 0 11 5 20 10 20 6 0 10 -9 10 -20z m-67 -11 c24 -13 37 -28 37 -46 0 -18
-39 -3 -45 18 -8 24 -31 25 -44 2 -5 -10 -13 -15 -17 -10 -8 8 24 47 38 47 5
0 19 -5 31 -11z m177 -54 c0 -3 -12 -10 -27 -16 -16 -7 -23 -13 -15 -16 6 -3
10 -9 6 -14 -8 -14 -37 19 -30 36 5 14 66 22 66 10z m-140 -31 c0 -8 -5 -12
-10 -9 -6 4 -8 11 -5 16 9 14 15 11 15 -7z m50 1 c0 -8 -4 -15 -10 -15 -5 0
-10 7 -10 15 0 8 5 15 10 15 6 0 10 -7 10 -15z m-100 -15 c0 -5 -4 -10 -10
-10 -5 0 -10 5 -10 10 0 6 5 10 10 10 6 0 10 -4 10 -10z"/>
<path d="M1756 381 c-4 -7 -5 -15 -2 -18 9 -9 19 4 14 18 -4 11 -6 11 -12 0z"/>
<path d="M1942 378 c5 -15 28 -23 28 -10 0 5 -7 13 -16 16 -10 4 -14 1 -12 -6z"/>
<path d="M1714 339 c-3 -6 -2 -15 4 -21 6 -6 11 -2 15 11 5 22 -7 29 -19 10z"/>
<path d="M1848 338 c9 -9 15 -9 24 0 9 9 7 12 -12 12 -19 0 -21 -3 -12 -12z"/>
<path d="M1022 258 c-18 -18 -16 -222 2 -238 22 -18 59 -8 73 20 14 29 7 197
-10 218 -12 15 -49 16 -65 0z"/>
</g>
</svg>
